<svg width="24" height="24" viewBox="0 0 24 24" fill="none" xmlns="http://www.w3.org/2000/svg">
<path d="M11 23H22C22.5523 23 23 22.5523 23 22V7.82843C23 7.56321 22.8946 7.30886 22.7071 7.12132L16.8787 1.29289C16.6911 1.10536 16.4368 1 16.1716 1H6C5.44772 1 5 1.44772 5 2V10C4.6547 10 4.31962 10.0438 4 10.126V2C4 0.89543 4.89543 0 6 0H16.1716C16.702 0 17.2107 0.210714 17.5858 0.585786L23.4142 6.41421C23.7893 6.78929 24 7.29799 24 7.82843V22C24 23.1046 23.1046 24 22 24H10.8294C10.9321 23.791 10.9682 23.5898 10.984 23.4416C11.0002 23.2902 11.0001 23.1312 11 23.02L11 23Z" fill="#366EE7"/>
<path d="M4 2C4 0.89543 4.89543 0 6 0H15C16.1046 0 17 0.895431 17 2V5C17 6.10457 17.8954 7 19 7H22C23.1046 7 24 7.89543 24 9V22C24 23.1046 23.1046 24 22 24H10.8294C10.9321 23.791 10.9682 23.5898 10.984 23.4416C11.0002 23.2902 11.0001 23.1312 11 23.02L11 23H22C22.5523 23 23 22.5523 23 22V9C23 8.44771 22.5523 8 22 8H19C17.3431 8 16 6.65685 16 5V2C16 1.44772 15.5523 1 15 1H6C5.44772 1 5 1.44772 5 2V10C4.6547 10 4.31962 10.0438 4 10.126V2Z" fill="#366EE7"/>
<circle cx="5" cy="14" r="2.5" stroke="#366EE7"/>
<path d="M9.5 23C9.5 23.1325 9.49947 23.2141 9.49282 23.2793C9.49083 23.2988 9.4886 23.3128 9.48671 23.3224C9.46014 23.3361 9.39964 23.3602 9.27694 23.3847C9.0126 23.4376 8.58429 23.4688 7.87952 23.4845C7.1833 23.5 6.25246 23.5 5 23.5C3.74754 23.5 2.8167 23.5 2.12048 23.4845C1.41571 23.4688 0.9874 23.4376 0.723058 23.3847C0.600363 23.3602 0.539859 23.3361 0.513294 23.3224C0.511399 23.3128 0.50917 23.2988 0.507183 23.2793C0.500532 23.2141 0.5 23.1325 0.5 23C0.5 20.5147 2.51472 18.5 5 18.5C7.48528 18.5 9.5 20.5147 9.5 23ZM9.50461 23.3111C9.50485 23.3111 9.5034 23.3126 9.49954 23.3151C9.50244 23.3122 9.50437 23.311 9.50461 23.3111ZM0.495391 23.3111C0.495632 23.311 0.497564 23.3122 0.500461 23.3151C0.496599 23.3126 0.49515 23.3111 0.495391 23.3111Z" stroke="#366EE7"/>
</svg>
