<svg width="24" height="24" viewBox="0 0 24 24" fill="none" xmlns="http://www.w3.org/2000/svg">
<path fill-rule="evenodd" clip-rule="evenodd" d="M14.5278 23H2C1.44772 23 1 22.5523 1 22V2C1 1.44772 1.44772 1 2 1H11C11.5523 1 12 1.44772 12 2V5C12 6.65685 13.3431 8 15 8H18C18.5523 8 19 8.44771 19 9V13C19.3407 13 19.6748 13.0284 20 13.083V9C20 7.89543 19.1046 7 18 7H15C13.8954 7 13 6.10457 13 5V2C13 0.895431 12.1046 0 11 0H2C0.895431 0 0 0.89543 0 2V22C0 23.1046 0.895431 24 2 24H15.6822C15.2559 23.7166 14.868 23.3801 14.5278 23Z" fill="#366EE7"/>
<path fill-rule="evenodd" clip-rule="evenodd" d="M14.5278 23H2C1.44772 23 1 22.5523 1 22V2C1 1.44772 1.44772 1 2 1H12.1716C12.4368 1 12.6911 1.10536 12.8787 1.29289L18.7071 7.12132L19.4142 6.41421L18.7071 7.12132C18.8946 7.30886 19 7.56321 19 7.82843V13C19.3407 13 19.6748 13.0284 20 13.083V7.82843C20 7.29799 19.7893 6.78929 19.4142 6.41421L13.5858 0.585786C13.2107 0.210714 12.702 0 12.1716 0H2C0.895431 0 0 0.89543 0 2V22C0 23.1046 0.895431 24 2 24H15.6822C15.2559 23.7166 14.868 23.3801 14.5278 23Z" fill="#366EE7"/>
<circle cx="19" cy="19" r="4.5" stroke="#366EE7"/>
<path d="M19 17V21" stroke="#366EE7" stroke-linecap="round"/>
<path d="M21 19L17 19" stroke="#366EE7" stroke-linecap="round"/>
</svg>
