<svg width="18" height="18" viewBox="0 0 18 18" fill="none" xmlns="http://www.w3.org/2000/svg">
<path fill-rule="evenodd" clip-rule="evenodd" d="M10.664 16.3815L10.6725 16.3864C12.2284 17.377 14.2637 17.1538 15.5679 15.8495L16.1183 15.2991C16.6302 14.7866 16.6302 13.9563 16.1183 13.4438L13.7993 11.1263C13.2868 10.6144 12.4565 10.6144 11.944 11.1263V11.1263C11.6982 11.3724 11.3646 11.5107 11.0167 11.5107C10.6688 11.5107 10.3352 11.3724 10.0894 11.1263L6.37877 7.41493C5.86689 6.90241 5.86689 6.07213 6.37877 5.55961V5.55961C6.62491 5.31378 6.76321 4.98018 6.76321 4.63231C6.76321 4.28444 6.62491 3.95084 6.37877 3.70501L4.06052 1.38391C3.548 0.872031 2.71772 0.872031 2.2052 1.38391L1.65479 1.93432C0.350798 3.23861 0.127331 5.27347 1.11718 6.82967L1.12287 6.83821C3.664 10.5999 6.90285 13.8395 10.664 16.3815V16.3815Z" stroke="#366EE7" stroke-linecap="round" stroke-linejoin="round"/>
</svg>
