<svg xmlns="http://www.w3.org/2000/svg" width="18" height="18" viewBox="0 0 18 18" fill="none">
<path fill-rule="evenodd" clip-rule="evenodd" d="M5.92988 14.1915C6.92297 14.7116 7.96351 15.0207 8.99893 14.9989C11.9145 15.0603 14.8714 12.4984 16.6961 9.98804C17.1013 9.4257 17.1013 8.57162 16.6961 8.00929C16.0814 7.16452 15.3476 6.32631 14.5373 5.58416L13.8294 6.292C14.5957 6.98936 15.2968 7.78607 15.8858 8.59531C16.0381 8.80834 16.0381 9.18914 15.8857 9.40212C15.0237 10.5877 13.9029 11.7716 12.6772 12.6428C11.4413 13.5212 10.1827 14.0236 9.01997 13.9991C9.00595 13.9988 8.99192 13.9988 8.9779 13.9991C8.23887 14.0147 7.46122 13.8174 6.67537 13.4461L5.92988 14.1915ZM8.02026 12.1012C8.32279 12.2502 8.65239 12.3322 8.99728 12.3322C10.47 12.3326 11.6635 10.8406 11.6639 8.99965C11.664 8.82752 11.6534 8.65677 11.6327 8.48875L10.6286 9.49279C10.4499 10.6866 9.63786 11.3324 8.9975 11.3322C8.93547 11.3322 8.87183 11.3261 8.80732 11.3141L8.02026 12.1012ZM7.3656 8.51319L6.36294 9.51584C6.34194 9.34723 6.33104 9.17444 6.33105 8.99846C6.33119 7.15755 7.52507 5.66528 8.99775 5.66528C9.3372 5.66517 9.66999 5.74598 9.97961 5.89917L9.196 6.68279C9.12902 6.67097 9.06284 6.66526 8.99809 6.66528C8.35621 6.66528 7.54169 7.31409 7.3656 8.51319ZM11.3222 4.55654C10.5314 4.18239 9.75325 3.98539 9.02002 4.00085C9.00596 4.00115 8.9919 4.00115 8.97785 4.00085C7.83717 3.9768 6.58777 4.46694 5.35148 5.33821C4.12568 6.20208 2.9944 7.38464 2.11436 8.5951C1.96186 8.80816 1.96188 9.18931 2.11442 9.40232C2.69694 10.2041 3.39787 11.0051 4.16965 11.7091L3.46185 12.4169C2.64561 11.6677 1.9118 10.825 1.30391 9.98804C0.898698 9.4257 0.898698 8.57162 1.30391 8.00929C3.16775 5.44473 6.13241 2.94063 8.99893 3.00107C10.0276 2.97938 11.069 3.28797 12.0677 3.81111L11.3222 4.55654Z" fill="#366EE7"/>
<path d="M17 1L1 17" stroke="#366EE7"/>
</svg>