<svg width="16" height="16" viewBox="0 0 16 16" fill="none" xmlns="http://www.w3.org/2000/svg">
<path d="M7.98839 2.50096C7.99542 2.50111 8.00245 2.50111 8.00947 2.50096C9.29644 2.47382 10.6501 3.02435 11.9347 3.92954C13.2142 4.83103 14.384 6.05597 15.2911 7.30248C15.5697 7.69003 15.5696 8.3074 15.291 8.69493C14.4038 9.91533 13.2457 11.1414 11.9669 12.0503C10.6831 12.9628 9.31974 13.5266 8.00945 13.499C8.00244 13.4989 7.99543 13.4989 7.98842 13.499C6.67814 13.5266 5.31499 12.9629 4.03154 12.0504C2.75314 11.1414 1.59557 9.91541 0.709069 8.69505C0.430326 8.30749 0.43031 7.68993 0.709023 7.30234C1.61502 6.05592 2.78427 4.831 4.06345 3.92951C5.34782 3.02435 6.70142 2.47382 7.98839 2.50096Z" stroke="#366EE7" stroke-linecap="round" stroke-linejoin="round"/>
<path d="M10.1645 7.99943V7.99954C10.1641 9.67421 9.09557 10.8325 7.99739 10.8322C6.89916 10.832 5.83094 9.67317 5.83105 7.9985C5.83117 6.32383 6.89955 5.16528 7.99775 5.16528H7.99792C8.53205 5.16511 9.07396 5.42955 9.49338 5.95398C9.91511 6.48131 10.1648 7.21611 10.1645 7.99943Z" stroke="#366EE7" stroke-linecap="round" stroke-linejoin="round"/>
</svg>
