<svg width="24" height="24" viewBox="0 0 24 24" fill="none" xmlns="http://www.w3.org/2000/svg">
<circle cx="9" cy="6" r="5.5" stroke="#366EE7"/>
<path fill-rule="evenodd" clip-rule="evenodd" d="M13.9532 15.7537C12.5886 14.6545 10.8664 14 9 14C4.59894 14 1 17.639 1 22.1667C1 22.4106 1.00103 22.5566 1.0126 22.6721C1.01385 22.6846 1.01515 22.6957 1.01644 22.7055C1.06951 22.7272 1.1647 22.7584 1.3246 22.791C1.78914 22.8856 2.55057 22.9429 3.8195 22.9716C5.07106 22.9999 6.74498 23 9 23C11.255 23 12.9289 22.9999 14.1805 22.9716C14.2892 22.9692 14.3941 22.9665 14.4955 22.9636C14.8119 23.3229 15.1706 23.6441 15.5639 23.9193C14.234 24 12.1781 24 9 24C2.31454 24 0.595231 24 0.153076 23.2485C0 22.9884 0 22.6381 0 22.1667C0 17.1041 4.02944 13 9 13C11.1001 13 13.0322 13.7326 14.5633 14.9606C14.3388 15.2071 14.1346 15.4723 13.9532 15.7537ZM0.958408 22.676C0.958767 22.6759 0.962216 22.6779 0.967681 22.6824C0.960781 22.6784 0.958049 22.6761 0.958408 22.676Z" fill="#366EE7"/>
<circle cx="19" cy="19" r="4.5" stroke="#366EE7"/>
<path d="M19 17V21" stroke="#366EE7" stroke-linecap="round"/>
<path d="M21 19L17 19" stroke="#366EE7" stroke-linecap="round"/>
</svg>
