<svg width="101" height="85" viewBox="0 0 101 85" fill="none" xmlns="http://www.w3.org/2000/svg">
<path d="M12.5088 34.374C12.5088 34.7884 12.6734 35.1858 12.9665 35.4788C13.2595 35.7719 13.6569 35.9365 14.0713 35.9365H29.6963C29.9022 35.9376 30.1063 35.898 30.2969 35.82C30.4874 35.742 30.6607 35.6271 30.8067 35.4819C30.9527 35.3367 31.0685 35.1641 31.1476 34.9739C31.2266 34.7838 31.2673 34.5799 31.2673 34.374C31.2673 34.1681 31.2266 33.9642 31.1476 33.7741C31.0685 33.584 30.9527 33.4113 30.8067 33.2661C30.6607 33.1209 30.4874 33.006 30.2969 32.928C30.1063 32.85 29.9022 32.8104 29.6963 32.8115H14.0713C13.6569 32.8115 13.2595 32.9762 12.9665 33.2692C12.6734 33.5622 12.5088 33.9596 12.5088 34.374Z" fill="#979797"/>
<path d="M7.82643 35.9365C8.03234 35.9376 8.23644 35.898 8.42699 35.82C8.61755 35.742 8.79081 35.6271 8.93681 35.4819C9.08281 35.3367 9.19867 35.1641 9.27773 34.9739C9.35679 34.7838 9.39749 34.5799 9.39749 34.374C9.39749 34.1681 9.35679 33.9642 9.27773 33.7741C9.19867 33.584 9.08281 33.4113 8.93681 33.2661C8.79081 33.1209 8.61755 33.006 8.42699 32.928C8.23644 32.85 8.03234 32.8104 7.82643 32.8115H6.26393C6.05802 32.8104 5.85392 32.85 5.66336 32.928C5.4728 33.006 5.29955 33.1209 5.15355 33.2661C5.00755 33.4113 4.89169 33.584 4.81263 33.7741C4.73357 33.9642 4.69287 34.1681 4.69287 34.374C4.69287 34.5799 4.73357 34.7838 4.81263 34.9739C4.89169 35.1641 5.00755 35.3367 5.15355 35.4819C5.29955 35.6271 5.4728 35.742 5.66336 35.82C5.85392 35.898 6.05802 35.9376 6.26393 35.9365H7.82643Z" fill="#979797"/>
<path d="M31.2588 49.999C31.2588 49.5846 31.0941 49.1872 30.8011 48.8942C30.5081 48.6012 30.1107 48.4365 29.6963 48.4365H14.0713C13.6569 48.4365 13.2595 48.6011 12.9664 48.8942C12.6734 49.1872 12.5088 49.5846 12.5088 49.999C12.5088 50.4134 12.6734 50.8109 12.9664 51.1039C13.2595 51.3969 13.6569 51.5615 14.0713 51.5615H29.6963C30.1107 51.5615 30.5081 51.3969 30.8011 51.1039C31.0941 50.8108 31.2588 50.4134 31.2588 49.999Z" fill="#979797"/>
<path d="M7.82617 48.4365H6.26367C5.84927 48.4365 5.45184 48.6011 5.15882 48.8942C4.86579 49.1872 4.70117 49.5846 4.70117 49.999C4.70117 50.4134 4.86579 50.8109 5.15882 51.1039C5.45184 51.3969 5.84927 51.5615 6.26367 51.5615H7.82617C8.24057 51.5615 8.638 51.3969 8.93103 51.1039C9.22405 50.8109 9.38867 50.4134 9.38867 49.999C9.38867 49.5846 9.22405 49.1872 8.93103 48.8942C8.638 48.6011 8.24057 48.4365 7.82617 48.4365Z" fill="#979797"/>
<path d="M31.2586 42.1865C31.2585 41.7722 31.0939 41.3747 30.8009 41.0817C30.5079 40.7887 30.1105 40.6241 29.6961 40.624H1.57106C1.36515 40.6229 1.16105 40.6625 0.970492 40.7405C0.779934 40.8185 0.606674 40.9334 0.460676 41.0786C0.314677 41.2238 0.198817 41.3965 0.119758 41.5866C0.0406994 41.7767 0 41.9806 0 42.1865C0 42.3924 0.0406994 42.5963 0.119758 42.7864C0.198817 42.9766 0.314677 43.1492 0.460676 43.2944C0.606674 43.4396 0.779934 43.5545 0.970492 43.6325C1.16105 43.7105 1.36515 43.7501 1.57106 43.749H29.6961C30.1104 43.749 30.5079 43.5844 30.8009 43.2913C31.0939 42.9983 31.2585 42.6009 31.2586 42.1865Z" fill="#979797"/>
<path d="M67.5556 39.0977L77.5736 30.8965C77.8934 30.634 78.096 30.2552 78.1369 29.8435C78.1778 29.4317 78.0536 29.0205 77.7917 28.7002C77.5297 28.3798 77.1513 28.1765 76.7396 28.1349C76.3279 28.0932 75.9165 28.2167 75.5957 28.478L65.582 36.6757C66.37 37.3676 67.037 38.1862 67.5556 39.0977Z" fill="#979797"/>
<path d="M59.407 49.9579C62.8568 49.9579 65.6534 47.1597 65.6534 43.7079C65.6534 40.2562 62.8568 37.458 59.407 37.458C55.9572 37.458 53.1606 40.2562 53.1606 43.7079C53.1606 47.1597 55.9572 49.9579 59.407 49.9579Z" fill="#979797"/>
<path d="M87.6437 16.6595C87.3332 16.9338 87.1442 17.3203 87.1184 17.7338C87.0926 18.1474 87.232 18.5543 87.5061 18.8652C91.2231 23.0582 93.9534 28.0309 95.4962 33.4177C97.039 38.8046 97.3552 44.4686 96.4215 49.9937C95.4878 55.5188 93.3279 60.7644 90.1007 65.3451C86.8734 69.9259 82.6607 73.7252 77.7723 76.464C72.8838 79.2028 67.4437 80.8115 61.8519 81.1717C56.2601 81.5319 50.6586 80.6346 45.4591 78.5457C40.2597 76.4568 35.5943 73.2293 31.806 69.1006C28.0176 64.9718 25.2025 60.0467 23.5676 54.6871H20.3213C21.9766 60.5574 24.9331 65.9795 28.9713 70.5505C33.0094 75.1216 38.0255 78.7243 43.6469 81.091C49.2683 83.4576 55.3506 84.5276 61.4422 84.2213C67.5338 83.915 73.4781 82.2403 78.8337 79.3217C84.1894 76.4031 88.8187 72.3154 92.378 67.3623C95.9372 62.4093 98.335 56.718 99.3931 50.7112C100.451 44.7044 100.143 38.5364 98.4901 32.6652C96.8376 26.7941 93.8837 21.3706 89.8477 16.7976C89.7122 16.6437 89.5476 16.518 89.3634 16.4277C89.1792 16.3375 88.9791 16.2844 88.7744 16.2716C88.5697 16.2588 88.3644 16.2864 88.1704 16.353C87.9764 16.4196 87.7974 16.5237 87.6437 16.6595Z" fill="#979797"/>
<path d="M24.651 29.687C27.2494 23.238 31.5867 17.6367 37.1799 13.5067C42.7731 9.37665 49.4028 6.87996 56.3309 6.29457L55.8834 6.55335C55.5246 6.76064 55.2629 7.10194 55.1558 7.50219C55.0487 7.90244 55.105 8.32885 55.3123 8.6876C55.5195 9.04636 55.8608 9.30808 56.2611 9.41519C56.6613 9.5223 57.0877 9.46602 57.4465 9.25874L62.9312 6.08722C63.1684 5.94995 63.3653 5.75271 63.5023 5.51529C63.6392 5.27787 63.7112 5.00862 63.7112 4.73455C63.7112 4.46048 63.6392 4.19124 63.5023 3.95382C63.3653 3.7164 63.1684 3.51916 62.9312 3.38189L57.4465 0.209557C57.0877 0.00227524 56.6613 -0.0540025 56.2611 0.0531057C55.8608 0.160214 55.5195 0.421934 55.3123 0.78069C55.105 1.13945 55.0487 1.56585 55.1558 1.9661C55.2629 2.36635 55.5246 2.70766 55.8834 2.91494L56.3095 3.16142C48.5473 3.77078 41.1228 6.59364 34.9165 11.2952C28.7102 15.9967 23.9826 22.3797 21.2944 29.687H24.651Z" fill="#979797"/>
<path d="M57.8457 71.8741V76.5615C57.8457 76.9757 58.0102 77.3729 58.3031 77.6658C58.5959 77.9586 58.9931 78.1231 59.4073 78.1231C59.8215 78.1231 60.2187 77.9586 60.5115 77.6658C60.8044 77.3729 60.9689 76.9757 60.9689 76.5615V71.8741C60.9689 71.4599 60.8044 71.0627 60.5115 70.7699C60.2187 70.477 59.8215 70.3125 59.4073 70.3125C58.9931 70.3125 58.5959 70.477 58.3031 70.7699C58.0102 71.0627 57.8457 71.4599 57.8457 71.8741Z" fill="#979797"/>
<path d="M87.5159 45.3115H92.2007C92.6136 45.3092 93.0088 45.1436 93.3 44.8508C93.5912 44.5581 93.7546 44.1619 93.7546 43.749C93.7546 43.3361 93.5912 42.94 93.3 42.6472C93.0088 42.3544 92.6136 42.1888 92.2007 42.1865H87.5159C87.1029 42.1888 86.7077 42.3544 86.4165 42.6472C86.1254 42.94 85.9619 43.3361 85.9619 43.749C85.9619 44.1619 86.1254 44.5581 86.4165 44.8508C86.7077 45.1436 87.1029 45.3092 87.5159 45.3115Z" fill="#979797"/>
<path d="M81.3774 68.3314C81.5225 68.4764 81.6947 68.5913 81.8842 68.6698C82.0737 68.7482 82.2768 68.7886 82.4819 68.7885C82.687 68.7885 82.8901 68.748 83.0796 68.6695C83.2691 68.5909 83.4412 68.4758 83.5862 68.3307C83.7312 68.1857 83.8462 68.0135 83.9246 67.8239C84.0031 67.6344 84.0434 67.4313 84.0434 67.2262C84.0433 67.0211 84.0028 66.818 83.9243 66.6285C83.8458 66.4391 83.7307 66.2669 83.5856 66.1219L80.2729 62.8077C80.1278 62.6627 79.9556 62.5477 79.7661 62.4693C79.5766 62.3909 79.3735 62.3505 79.1684 62.3506C78.9632 62.3506 78.7602 62.3911 78.5707 62.4697C78.3812 62.5482 78.2091 62.6633 78.0641 62.8084C77.9191 62.9534 77.8041 63.1257 77.7256 63.3152C77.6472 63.5047 77.6069 63.7078 77.6069 63.9129C77.607 64.118 77.6475 64.3211 77.726 64.5106C77.8045 64.7001 77.9196 64.8722 78.0647 65.0172L81.3774 68.3314Z" fill="#979797"/>
</svg>
