<svg width="22" height="24" viewBox="0 0 22 24" fill="none" xmlns="http://www.w3.org/2000/svg">
<path d="M0.5 2C0.5 1.17157 1.17157 0.5 2 0.5H15.6202C16.0407 0.5 16.4418 0.67647 16.7259 0.986413L21.1057 5.76438C21.3593 6.04103 21.5 6.40268 21.5 6.77797V22C21.5 22.8284 20.8284 23.5 20 23.5H2C1.17157 23.5 0.5 22.8284 0.5 22V2Z" stroke="#366EE7"/>
<path d="M16 0.5V4C16 5.10457 16.8954 6 18 6H21.5" stroke="#366EE7"/>
<path d="M13.5 15V16.3238C13.5 16.4404 13.5204 16.556 13.5602 16.6656L15.5 22L17.4398 16.6656C17.4796 16.556 17.5 16.4404 17.5 16.3238V15" stroke="#366EE7" stroke-linejoin="bevel"/>
<path d="M6.5 17V16.5C6.5 15.9477 6.05228 15.5 5.5 15.5H4C3.44772 15.5 3 15.9477 3 16.5V20.5C3 21.0523 3.44772 21.5 4 21.5H5.5C6.05228 21.5 6.5 21.0523 6.5 20.5V19" stroke="#366EE7"/>
<path d="M11.5 16.5V16.5C11.5 15.9477 11.0523 15.5 10.5 15.5H9.5C8.94772 15.5 8.5 15.9477 8.5 16.5V17.0858C8.5 17.351 8.60536 17.6054 8.79289 17.7929L10.5 19.5L11.2929 20.2929C11.4255 20.4255 11.5 20.6054 11.5 20.7929V20.7929C11.5 21.1834 11.1834 21.5 10.7929 21.5H9.5C8.94772 21.5 8.5 21.0523 8.5 20.5V20.5" stroke="#366EE7"/>
</svg>
