<svg width="20" height="20" viewBox="0 0 20 20" fill="none" xmlns="http://www.w3.org/2000/svg">
<path d="M11.6915 9.62656C11.6915 9.46137 11.7843 9.22325 11.8996 9.09377L19.2644 0.824561C19.3793 0.695502 19.32 0.590879 19.1275 0.590879H0.87243C0.681893 0.590879 0.620236 0.695081 0.735554 0.824561L8.10032 9.09377C8.21526 9.22283 8.30844 9.45606 8.30844 9.6209V19.2056C8.30844 19.3676 8.4538 19.4482 8.62064 19.39L11.3793 18.4263C11.5517 18.3661 11.6915 18.1902 11.6915 18.0182V9.62656ZM12.3681 9.62656V18.0182C12.3681 18.4292 12.0626 18.824 11.6306 18.9749L8.87193 19.9386C8.26183 20.1517 7.63183 19.7868 7.63183 19.2056V9.6209C7.63183 9.58897 7.58987 9.48307 7.56623 9.45653L0.201471 1.18733C-0.264194 0.664474 0.126236 0 0.87243 0H19.1275C19.8768 0 20.2629 0.665792 19.7985 1.18733L12.4337 9.45653C12.4112 9.48182 12.3681 9.59217 12.3681 9.62656Z" fill="#366EE7"/>
</svg>
